HIERARCHY
ROOT hip
{
	OFFSET 0.000000 0.000000 0.000000 
	CHANNELS 6 Xposition Yposition Zposition Xrotation Zrotation Yrotation
	JOINT abdomen
	{
		OFFSET 0.000000 3.402643 0.000000 
		CHANNELS 3 Xrotation Zrotation Yrotation
		JOINT chest
		{
			OFFSET 0.000000 8.438565 -0.680529 
			CHANNELS 3 Xrotation Zrotation Yrotation
			JOINT neck
			{
				OFFSET 0.000000 10.207942 -0.272212 
				CHANNELS 3 Xrotation Zrotation Yrotation
				JOINT head
				{
					OFFSET 0.000000 3.130431 0.000000 
					CHANNELS 3 Xrotation Zrotation Yrotation
					End Site
					{
						OFFSET 0.000000 3.130435 0.000000 
					}
				}
			}
			JOINT lCollar
			{
				OFFSET 3.470700 6.669187 -0.816635 
				CHANNELS 3 Yrotation Zrotation Xrotation
				JOINT lShldr
				{
					OFFSET 3.198488 0.000000 0.000000 
					CHANNELS 3 Zrotation Yrotation Xrotation
					JOINT lForeArm
					{
						OFFSET 10.139888 0.000000 0.000000 
						CHANNELS 3 Yrotation Zrotation Xrotation
						JOINT lHand
						{
							OFFSET 8.370511 0.000000 0.000000 
							CHANNELS 3 Zrotation Yrotation Xrotation
							End Site
							{
								OFFSET 4.083176 0.000000 0.000000 
							}
						}
					}
				}
			}
			JOINT rCollar
			{
				OFFSET -3.470700 6.669187 -0.816635 
				CHANNELS 3 Yrotation Zrotation Xrotation
				JOINT rShldr
				{
					OFFSET -3.198488 0.000000 0.000000 
					CHANNELS 3 Zrotation Yrotation Xrotation
					JOINT rForeArm
					{
						OFFSET -10.139888 0.000000 0.000000 
						CHANNELS 3 Yrotation Zrotation Xrotation
						JOINT rHand
						{
							OFFSET -8.370511 0.000000 0.000000 
							CHANNELS 3 Zrotation Yrotation Xrotation
							End Site
							{
								OFFSET -4.083176 0.000000 0.000000 
							}
						}
					}
				}
			}
		}
	}
	JOINT lThigh
	{
		OFFSET 5.308129 -1.633274 1.361059 
		CHANNELS 3 Xrotation Zrotation Yrotation
		JOINT lShin
		{
			OFFSET -2.041588 -20.007561 0.000000 
			CHANNELS 3 Xrotation Zrotation Yrotation
			JOINT lFoot
			{
				OFFSET 0.000000 -19.190928 -1.224953 
				CHANNELS 3 Xrotation Yrotation Zrotation
				End Site
				{
					OFFSET 0.000000 -2.449906 4.627600 
				}
			}
		}
	}
	JOINT rThigh
	{
		OFFSET -5.308129 -1.633274 1.361059 
		CHANNELS 3 Xrotation Zrotation Yrotation
		JOINT rShin
		{
			OFFSET 2.041588 -20.007561 0.000000 
			CHANNELS 3 Xrotation Zrotation Yrotation
			JOINT rFoot
			{
				OFFSET 0.000000 -19.190928 -1.224953 
				CHANNELS 3 Xrotation Yrotation Zrotation
				End Site
				{
					OFFSET 0.000000 -2.449906 4.627600 
				}
			}
		}
	}
}
MOTION
Frames: 18
Frame Time: 0.016667
-3.660553 49.601852 1.684534 -1.060304 0.742057 1.074382 0.000000 0.000000 0.000000 -5.886314 0.636948 -1.874794 0.637380 1.474159 -1.416300 9.375201 -2.187306 0.761909 -7.603153 -2.554941 -4.788869 -69.868317 14.933343 16.495680 -40.453419 -9.631158 8.228930 -1.153682 0.967912 -3.437572 8.550618 18.960836 -6.405466 54.081516 -23.666679 16.479141 44.394592 11.091411 12.094005 -8.697964 -8.273143 -3.203382 6.669633 2.546621 5.063558 0.906593 -3.615308 12.222850 -6.059503 0.072696 -1.502758 2.145331 -3.959881 -5.385846 6.873905 3.787365 -14.532175 -7.521524 -0.105218 1.440878 
-3.711355 49.617188 1.741676 -1.003158 0.683480 1.045081 0.000000 0.000000 0.000000 -5.769029 0.709215 -1.940467 0.678373 1.405826 -1.406545 9.321552 -1.913910 0.722905 -7.659856 -2.369424 -4.671154 -69.842667 14.864507 16.751865 -40.207451 -9.784248 7.935932 -0.761742 1.118482 -3.442201 8.381095 18.648949 -6.262515 54.393425 -23.419693 16.545721 44.025166 11.141404 12.577774 -8.501464 -8.426428 -3.205401 6.941487 2.636587 5.111598 0.313199 -3.555420 12.351717 -5.784586 0.087500 -1.548289 2.431114 -3.788345 -5.321527 6.258023 3.766634 -14.685184 -7.299665 -0.108058 1.331688 
-3.769966 49.628193 1.784428 -0.915798 0.693257 0.986492 0.000000 0.000000 0.000000 -5.651993 0.760583 -1.915887 0.473799 1.356996 -1.435838 9.809512 -2.079934 0.674093 -7.707232 -2.535078 -4.574454 -69.540504 14.818468 16.719255 -40.035713 -9.817752 8.090219 -1.466491 1.291661 -3.441362 8.282211 18.427608 -6.122020 54.674683 -23.082813 16.403502 43.686996 11.081409 12.852221 -8.784150 -8.298778 -3.197122 7.109180 2.724635 5.223598 -0.008979 -3.627259 12.189990 -5.693457 0.078004 -1.605247 2.504409 -3.655017 -5.199170 5.912519 3.674129 -14.947719 -7.143692 -0.092020 1.284897 
-3.835523 49.622242 1.810767 -0.757020 0.771349 1.074384 0.000000 0.000000 0.000000 -5.554027 0.676374 -1.976605 -0.029236 1.386170 -1.611565 10.864962 -2.206904 0.615530 -7.723736 -2.438794 -4.476625 -69.567429 14.659286 16.674038 -39.625839 -9.843040 8.258514 -1.694133 1.825892 -3.451851 8.259871 18.644722 -6.045869 54.310558 -23.082150 16.523907 44.031353 11.041747 13.336896 -9.146690 -8.413568 -3.177833 6.873890 2.763772 5.180090 0.331915 -3.610176 11.892815 -5.903501 0.079304 -1.744160 2.262641 -3.658306 -5.178757 6.197047 3.666277 -15.025275 -7.379057 -0.104859 1.279889 
-3.920302 49.638565 1.831763 -0.770349 0.947040 1.250313 0.000000 0.000000 0.000000 -5.309353 0.557488 -2.092905 -0.203148 1.122433 -1.894742 10.790671 -1.796847 0.322413 -7.824750 -2.624628 -4.273041 -69.393745 14.623059 16.598534 -39.553368 -9.836339 8.534265 -1.041442 1.375543 -3.452076 8.082829 18.637596 -5.811376 54.296238 -22.659124 16.344664 43.802021 10.961499 13.991817 -9.147770 -8.394344 -3.181118 6.935142 2.722923 5.142840 0.252671 -3.637705 11.742499 -5.843017 0.099375 -1.820253 2.408787 -3.745294 -5.308902 6.032588 3.716790 -15.113269 -7.362320 -0.101459 1.152923 
-4.016035 49.645638 1.829190 -0.543116 1.034894 1.289381 0.000000 0.000000 0.000000 -5.328958 0.531076 -2.060985 -0.398725 1.044253 -2.050974 10.563559 -1.669919 0.097615 -8.010374 -2.482139 -4.280280 -69.525383 14.696528 16.722084 -39.602051 -9.964746 7.525383 0.037859 1.313284 -3.464997 8.138385 18.758785 -5.826359 54.067818 -22.505505 16.351170 43.705696 10.969916 14.362123 -9.372333 -8.244500 -3.186380 6.755138 2.782924 5.148460 0.037974 -3.668695 11.758230 -5.632100 0.095213 -1.916740 2.203199 -3.694668 -5.243164 5.986260 3.719698 -15.233808 -7.383534 -0.083759 1.043254 
-4.116136 49.660027 1.810300 -0.284067 1.142224 1.426082 0.000000 0.000000 0.000000 -5.367751 0.523729 -2.138764 -0.485739 0.927015 -2.256038 10.031548 -1.650389 -0.078374 -7.970445 -2.566655 -4.329521 -69.406891 14.760819 16.745035 -39.836868 -9.878386 8.306551 -0.205321 1.611625 -3.471198 8.109856 18.639500 -5.863313 54.023674 -22.290461 16.379669 43.479225 10.881751 15.584470 -9.068933 -8.261401 -3.194602 6.521832 2.734270 4.935918 -0.116973 -3.548538 11.825524 -5.489525 0.119609 -2.064882 2.048748 -3.698278 -5.249036 5.787261 3.763479 -15.363288 -7.327276 -0.053608 0.864112 
-4.218429 49.655529 1.785552 -0.215180 1.376409 1.611801 0.000000 0.000000 0.000000 -5.269998 0.445032 -2.141148 -0.475358 0.848850 -2.422043 9.761840 -1.845694 -0.185765 -8.229346 -2.559369 -4.239396 -69.477287 14.582689 16.855373 -39.496246 -9.953327 8.527615 -0.382070 1.630348 -3.456747 8.056998 18.614861 -5.771715 53.869663 -21.965622 16.390192 43.278976 10.797491 16.609268 -8.708591 -8.539053 -3.188282 6.363738 2.597033 4.699675 -0.048062 -3.420391 11.838395 -5.450188 0.111171 -2.227862 1.697394 -3.804884 -5.319722 6.346135 3.767272 -15.478823 -7.621341 -0.070071 0.835880 
-4.334910 49.654961 1.720686 -0.070445 1.522720 1.758489 0.000000 0.000000 0.000000 -5.162282 0.465933 -2.231401 -0.512462 0.780512 -2.490402 9.586501 -1.982411 -0.185774 -8.160812 -2.512163 -4.123699 -69.447586 14.216022 17.236032 -39.579033 -10.109695 8.400398 0.043427 2.018087 -3.482458 8.060577 18.693817 -5.670415 53.386387 -21.400517 16.683477 43.172966 10.843304 17.456322 -8.409949 -8.772178 -3.182616 6.068577 2.615998 4.627115 0.056848 -3.455182 11.714917 -5.345239 0.105469 -2.325335 1.356545 -3.884929 -5.416774 6.649728 3.885376 -15.597795 -7.779420 -0.038672 0.657666 
-4.425230 49.640709 1.616250 0.225868 1.981200 2.013216 0.000000 0.000000 0.000000 -5.103468 0.278453 -2.243137 -0.521935 0.770750 -2.500168 9.209854 -2.548828 -0.019946 -8.404556 -2.642870 -4.112053 -69.385094 13.952823 17.465841 -39.778675 -10.160129 8.819585 0.269198 2.002520 -3.484482 8.081512 18.772488 -5.651892 52.639305 -20.959793 17.014992 43.333607 10.906248 17.724848 -8.128315 -8.752207 -3.197103 5.625345 2.243307 4.122199 -0.029279 -3.295571 11.786492 -5.090557 0.118969 -2.477103 0.399070 -4.444828 -5.784196 7.942832 4.142689 -15.428592 -8.395951 -0.056044 0.586296 
-4.504782 49.591850 1.452938 0.702222 2.527054 2.414499 0.000000 0.000000 0.000000 -5.181280 0.067855 -2.291928 -0.476368 0.634185 -2.451238 9.173870 -2.841791 0.117043 -8.713288 -2.898548 -4.216503 -68.916962 13.610527 18.446981 -40.259789 -10.508997 8.869919 0.576233 2.735572 -3.483941 8.277083 18.910069 -5.757500 51.614765 -20.789387 17.345219 43.636189 10.989687 17.612640 -7.007125 -8.310759 -3.271084 4.691065 1.785404 3.381776 0.488404 -3.097256 11.671160 -5.135853 0.115927 -2.670004 -1.210202 -5.140604 -6.097574 10.044567 4.264051 -15.522805 -9.341948 -0.060109 0.725905 
-4.574644 49.505817 1.219167 1.440373 2.769310 3.128896 0.000000 0.000000 0.000000 -5.297822 0.071689 -2.459043 -0.385813 0.800048 -2.451342 8.650349 -3.154224 0.391108 -8.910954 -2.585225 -4.309541 -68.309456 12.743271 20.431154 -41.144489 -11.143857 9.095640 1.887234 3.013287 -3.501248 8.279249 19.226295 -5.933391 50.459087 -20.693758 17.828005 44.437958 11.043427 18.041050 -6.458518 -7.754144 -3.326315 3.203901 1.616917 2.660393 1.365250 -2.835870 10.860986 -5.279332 0.139818 -2.915927 -3.153751 -5.603539 -6.338013 12.258791 4.535534 -15.754163 -10.298534 -0.099174 0.838566 
-4.643856 49.401173 0.985759 2.035013 2.678164 4.252981 0.000000 0.000000 0.000000 -5.257444 0.294172 -2.803734 -0.310970 1.238921 -2.637158 8.526237 -3.798526 0.723656 -9.353211 -1.893416 -4.195475 -68.413361 11.621997 21.509319 -41.752338 -11.343084 10.435780 2.083250 3.475723 -3.492518 8.217043 19.604443 -5.960016 49.317806 -20.467932 17.886406 45.033772 11.015990 18.126869 -7.560073 -8.478438 -3.249216 0.544674 1.877643 2.366281 5.120354 -2.769660 8.952942 -6.768532 0.216510 -3.236262 -4.744773 -5.701016 -6.439744 14.075981 4.731771 -16.542204 -11.078373 -0.114972 0.984121 
-4.743184 49.309864 0.715644 2.730591 2.343139 5.385531 0.000000 0.000000 0.000000 -5.237407 0.648018 -3.003874 -0.357693 1.629158 -2.618072 8.927974 -3.671443 0.880229 -9.784911 -1.140566 -4.111103 -68.418777 10.129280 22.651724 -42.439980 -11.495323 12.562457 2.257245 3.506278 -3.490737 8.314335 19.843760 -6.030529 48.498989 -19.821726 17.297260 44.759216 11.123947 17.317814 -7.430952 -10.204323 -3.161747 -4.206407 2.625217 2.585098 12.482963 -2.910273 6.589046 -8.715173 0.276681 -3.526922 -6.277212 -5.378655 -6.219059 15.276754 4.770479 -17.764614 -11.467145 -0.124676 1.132209 
-4.787612 49.287720 0.512712 3.058920 2.263057 5.971767 0.000000 0.000000 0.000000 -5.043763 0.842673 -2.708355 0.072903 1.951739 -2.159279 9.326541 -3.280734 1.016755 -9.826513 -0.837829 -3.917542 -68.328529 8.388785 23.752567 -43.011734 -11.559523 14.642805 1.564097 3.648707 -3.497866 8.874087 20.219694 -5.954664 47.072693 -19.566593 17.096018 44.505135 11.229721 16.602985 -7.324271 -10.334105 -3.160030 -8.109241 3.200257 2.991420 18.912706 -3.164183 4.533273 -8.991795 0.264125 -3.481709 -6.978139 -5.337769 -6.233574 15.618587 4.809646 -18.599180 -11.417795 -0.130693 1.172489 
-4.798476 49.266903 0.324640 3.120621 2.136097 6.147028 0.000000 0.000000 0.000000 -4.733525 1.045061 -2.227191 0.783492 2.343073 -1.377798 10.177669 -2.597038 1.250928 -9.096498 -0.710357 -3.626494 -68.044685 6.436846 24.949255 -43.544819 -11.705614 16.293848 2.279812 3.919031 -3.491043 9.595663 20.992983 -5.820750 45.140785 -19.320280 16.990910 44.311092 11.372764 16.806643 -7.149418 -10.175281 -3.182870 -10.604729 3.681436 3.201064 22.861506 -3.127914 4.269812 -8.433492 0.303838 -3.823178 -7.398330 -5.201649 -6.115184 15.864579 4.791505 -18.912811 -11.310191 -0.137385 1.190562 
-4.767568 49.292416 0.154758 3.083596 2.583481 5.992546 0.000000 0.000000 0.000000 -4.295478 0.734402 -1.570098 1.467654 2.451115 -0.390685 11.492043 -1.854770 1.573022 -8.192702 -0.781154 -3.267713 -68.033066 4.689948 25.467381 -44.114319 -11.427828 18.943771 1.894832 3.209299 -3.493600 10.366642 21.476639 -5.485256 43.417454 -18.806763 16.796036 44.022827 11.548744 17.343466 -7.527205 -10.230272 -3.151192 -11.587481 3.670369 3.346099 23.796896 -3.119881 6.495624 -7.035466 0.289053 -4.692189 -7.652576 -5.709585 -6.238225 16.032223 4.756995 -18.708611 -11.164447 -0.140454 1.145228 
-4.715002 49.312290 0.033161 2.803123 2.924791 5.730624 0.000000 0.000000 0.000000 -3.690876 0.485386 -0.987482 2.341874 2.587830 0.391108 12.407777 -1.844630 1.953999 -7.396080 -0.708388 -2.750776 -68.408630 3.294673 25.280027 -44.709866 -11.006139 18.632689 0.356704 3.113628 -3.500714 10.839350 21.640726 -4.940458 42.412521 -18.149450 16.358425 43.845810 11.491277 18.416098 -7.832854 -10.302169 -3.136028 -11.296610 3.710309 3.450987 22.448172 -2.924042 10.315749 -5.707370 0.302467 -5.892684 -7.556302 -6.179322 -6.432672 16.166702 4.790996 -18.214903 -11.047846 -0.115618 1.070452 
